<svg xmlns="http://www.w3.org/2000/svg" width="87.619" height="38.731" viewBox="0 0 87.619 38.731"><g id="Group_49" data-name="Group 49" transform="translate(-587 -233)"><path fill="#FFF" id="Path_14" data-name="Path 14" d="M29.753,11.6a6.514,6.514,0,0,0-3.6.772c-.772.515-1.287,1.673-1.673,3.346l-.129.515c-.386,1.673-.257,2.7.386,3.346a5.64,5.64,0,0,0,3.474.9,7.02,7.02,0,0,0,3.732-.772c.772-.515,1.287-1.673,1.673-3.346l.129-.515c.386-1.673.129-2.7-.515-3.346S31.426,11.6,29.753,11.6Z" transform="translate(593.915 236.326)"></path><path fill="#FFF" id="Path_15" data-name="Path 15" d="M52.653,11.6a6.514,6.514,0,0,0-3.6.772c-.772.515-1.287,1.673-1.673,3.346l-.129.515c-.386,1.673-.257,2.7.386,3.346a5.64,5.64,0,0,0,3.474.9,7.02,7.02,0,0,0,3.732-.772c.772-.515,1.287-1.673,1.673-3.346l.129-.515c.386-1.673.129-2.7-.515-3.346S54.326,11.6,52.653,11.6Z" transform="translate(600.482 236.326)"></path><path fill="#FFF" id="Path_16" data-name="Path 16" d="M62.053,23.2a6.514,6.514,0,0,0-3.6.772c-.772.515-1.287,1.673-1.673,3.346l-.129.515c-.386,1.673-.257,2.7.386,3.346a5.64,5.64,0,0,0,3.474.9,7.02,7.02,0,0,0,3.732-.772c.772-.515,1.287-1.673,1.673-3.346l.129-.515c.386-1.673.129-2.7-.515-3.346S63.726,23.2,62.053,23.2Z" transform="translate(603.177 239.653)"></path><path fill="#FFF" id="Path_17" data-name="Path 17" d="M5.532,23.2a6.514,6.514,0,0,0-3.6.772c-.772.515-1.287,1.673-1.673,3.346l-.129.515C-.13,29.505,0,30.663.642,31.178a5.64,5.64,0,0,0,3.474.9,7.02,7.02,0,0,0,3.732-.772c.772-.515,1.287-1.673,1.673-3.346l.129-.515c.386-1.673.129-2.7-.515-3.346A5.811,5.811,0,0,0,5.532,23.2Z" transform="translate(586.997 239.653)"></path><path fill="#FFF" id="Path_18" data-name="Path 18" d="M53.235,23.2H39.853a6.514,6.514,0,0,0-3.6.772c-.772.515-1.287,1.673-1.673,3.346l-.129.515c-.386,1.673-.257,2.7.386,3.346a5.64,5.64,0,0,0,3.474.9H51.691a7.02,7.02,0,0,0,3.732-.772c.772-.515,1.287-1.673,1.673-3.346l.129-.515c.386-1.673.129-2.7-.515-3.346S54.908,23.2,53.235,23.2Z" transform="translate(596.811 239.653)"></path><path fill="#FFF" id="Path_19" data-name="Path 19" d="M30.535,23.2H17.153a6.514,6.514,0,0,0-3.6.772c-.772.515-1.287,1.673-1.673,3.346l-.129.515c-.386,1.673-.257,2.7.386,3.346a5.64,5.64,0,0,0,3.474.9H28.991a7.02,7.02,0,0,0,3.732-.772c.772-.515,1.287-1.673,1.673-3.346l.129-.515c.386-1.673.129-2.7-.515-3.346S32.208,23.2,30.535,23.2Z" transform="translate(590.302 239.653)"></path><path fill="#FFF" id="Path_20" data-name="Path 20" d="M69.627.9c-.643-.643-1.8-.9-3.474-.9a6.514,6.514,0,0,0-3.6.772c-.772.515-1.287,1.673-1.673,3.346l-.129.515c-.386,1.673-.257,2.7.386,3.346a5.64,5.64,0,0,0,3.474.9,7.02,7.02,0,0,0,3.732-.772c.772-.515,1.287-1.673,1.673-3.346l.129-.515C70.4,2.574,70.27,1.415,69.627.9Z" transform="translate(604.353 233)"></path><path fill="#FFF" id="Path_21" data-name="Path 21" d="M58.227.9c-.643-.643-1.8-.9-3.474-.9a6.514,6.514,0,0,0-3.6.772c-.772.515-1.287,1.673-1.673,3.346l-.129.515c-.386,1.673-.257,2.7.386,3.346a5.64,5.64,0,0,0,3.474.9,7.02,7.02,0,0,0,3.732-.772c.772-.515,1.287-1.673,1.673-3.346l.129-.515C59,2.574,58.87,1.415,58.227.9Z" transform="translate(601.084 233)"></path><path fill="#FFF" id="Path_22" data-name="Path 22" d="M41.809,8.879a7.02,7.02,0,0,0,3.732-.772c.772-.515,1.287-1.673,1.673-3.346l.129-.515c.386-1.673.129-2.7-.515-3.346s-1.8-.9-3.474-.9a6.514,6.514,0,0,0-3.6.772c-.772.515-1.287,1.673-1.673,3.346l-.129.515c-.386,1.673-.257,2.7.386,3.346S40.136,8.879,41.809,8.879Z" transform="translate(597.815 233)"></path><path fill="#FFF" id="Path_23" data-name="Path 23" d="M34.735,0H21.353a6.514,6.514,0,0,0-3.6.772c-.772.515-1.287,1.673-1.673,3.346l-.129.515c-.386,1.673-.257,2.7.386,3.346a5.64,5.64,0,0,0,3.474.9H33.191a7.02,7.02,0,0,0,3.732-.772c.772-.515,1.287-1.673,1.673-3.346l.129-.515c.386-1.673.129-2.7-.515-3.346S36.408,0,34.735,0Z" transform="translate(591.507 233)"></path></g></svg>